<?xml version="1.0" encoding="UTF-8" standalone="no"?>
<!DOCTYPE svg PUBLIC "-//W3C//DTD SVG 1.1//EN"
 "http://www.w3.org/Graphics/SVG/1.1/DTD/svg11.dtd">
<!-- Generated by graphviz version 2.40.1 (20161225.0304)
 -->
<!-- Title: %3 Pages: 1 -->
<svg width="2444pt" height="476pt"
 viewBox="0.00 0.00 2443.79 476.00" xmlns="http://www.w3.org/2000/svg" xmlns:xlink="http://www.w3.org/1999/xlink">
<g id="graph0" class="graph" transform="scale(1 1) rotate(0) translate(4 472)">
<title>%3</title>
<polygon fill="#ffffff" stroke="transparent" points="-4,4 -4,-472 2439.793,-472 2439.793,4 -4,4"/>
<!-- [root] aws_alb.kms&#45;report&#45;lb -->
<g id="node1" class="node">
<title>[root] aws_alb.kms&#45;report&#45;lb</title>
<polygon fill="none" stroke="#000000" points="192.5,-252 52.5,-252 52.5,-216 192.5,-216 192.5,-252"/>
<text text-anchor="middle" x="122.5" y="-230.3" font-family="Times,serif" font-size="14.00" fill="#000000">aws_alb.kms&#45;report&#45;lb</text>
</g>
<!-- [root] aws_security_group.My_VPC_Security_Group -->
<g id="node11" class="node">
<title>[root] aws_security_group.My_VPC_Security_Group</title>
<polygon fill="none" stroke="#000000" points="275,-180 0,-180 0,-144 275,-144 275,-180"/>
<text text-anchor="middle" x="137.5" y="-158.3" font-family="Times,serif" font-size="14.00" fill="#000000">aws_security_group.My_VPC_Security_Group</text>
</g>
<!-- [root] aws_alb.kms&#45;report&#45;lb&#45;&gt;[root] aws_security_group.My_VPC_Security_Group -->
<g id="edge1" class="edge">
<title>[root] aws_alb.kms&#45;report&#45;lb&#45;&gt;[root] aws_security_group.My_VPC_Security_Group</title>
<path fill="none" stroke="#000000" d="M126.2851,-215.8314C127.8894,-208.131 129.797,-198.9743 131.5799,-190.4166"/>
<polygon fill="#000000" stroke="#000000" points="135.0507,-190.9169 133.6639,-180.4133 128.1979,-189.4892 135.0507,-190.9169"/>
</g>
<!-- [root] aws_alb_listener.alb&#45;listener -->
<g id="node2" class="node">
<title>[root] aws_alb_listener.alb&#45;listener</title>
<polygon fill="none" stroke="#000000" points="482.5,-324 310.5,-324 310.5,-288 482.5,-288 482.5,-324"/>
<text text-anchor="middle" x="396.5" y="-302.3" font-family="Times,serif" font-size="14.00" fill="#000000">aws_alb_listener.alb&#45;listener</text>
</g>
<!-- [root] aws_alb_listener.alb&#45;listener&#45;&gt;[root] aws_alb.kms&#45;report&#45;lb -->
<g id="edge2" class="edge">
<title>[root] aws_alb_listener.alb&#45;listener&#45;&gt;[root] aws_alb.kms&#45;report&#45;lb</title>
<path fill="none" stroke="#000000" d="M327.7119,-287.9243C289.1959,-277.8033 241.0229,-265.1447 201.0316,-254.6361"/>
<polygon fill="#000000" stroke="#000000" points="201.8776,-251.2396 191.3164,-252.0831 200.0985,-258.0098 201.8776,-251.2396"/>
</g>
<!-- [root] aws_alb_target_group.kms&#45;report&#45;tg -->
<g id="node3" class="node">
<title>[root] aws_alb_target_group.kms&#45;report&#45;tg</title>
<polygon fill="none" stroke="#000000" points="426,-252 211,-252 211,-216 426,-216 426,-252"/>
<text text-anchor="middle" x="318.5" y="-230.3" font-family="Times,serif" font-size="14.00" fill="#000000">aws_alb_target_group.kms&#45;report&#45;tg</text>
</g>
<!-- [root] aws_alb_listener.alb&#45;listener&#45;&gt;[root] aws_alb_target_group.kms&#45;report&#45;tg -->
<g id="edge3" class="edge">
<title>[root] aws_alb_listener.alb&#45;listener&#45;&gt;[root] aws_alb_target_group.kms&#45;report&#45;tg</title>
<path fill="none" stroke="#000000" d="M376.8173,-287.8314C367.3949,-279.1337 355.9599,-268.5783 345.7204,-259.1265"/>
<polygon fill="#000000" stroke="#000000" points="347.8984,-256.3738 338.1764,-252.1628 343.1505,-261.5175 347.8984,-256.3738"/>
</g>
<!-- [root] aws_vpc.My_VPC -->
<g id="node16" class="node">
<title>[root] aws_vpc.My_VPC</title>
<polygon fill="none" stroke="#000000" points="852.5,-108 732.5,-108 732.5,-72 852.5,-72 852.5,-108"/>
<text text-anchor="middle" x="792.5" y="-86.3" font-family="Times,serif" font-size="14.00" fill="#000000">aws_vpc.My_VPC</text>
</g>
<!-- [root] aws_alb_target_group.kms&#45;report&#45;tg&#45;&gt;[root] aws_vpc.My_VPC -->
<g id="edge4" class="edge">
<title>[root] aws_alb_target_group.kms&#45;report&#45;tg&#45;&gt;[root] aws_vpc.My_VPC</title>
<path fill="none" stroke="#000000" d="M317.7849,-215.7197C318.0585,-195.0024 321.9828,-161.8075 342.5,-144 370.5769,-119.6312 602.4534,-101.8123 721.9177,-94.1536"/>
<polygon fill="#000000" stroke="#000000" points="722.3105,-97.6358 732.069,-93.5099 721.8675,-90.6499 722.3105,-97.6358"/>
</g>
<!-- [root] aws_autoscaling_group.example -->
<g id="node4" class="node">
<title>[root] aws_autoscaling_group.example</title>
<polygon fill="none" stroke="#000000" points="1035.5,-324 841.5,-324 841.5,-288 1035.5,-288 1035.5,-324"/>
<text text-anchor="middle" x="938.5" y="-302.3" font-family="Times,serif" font-size="14.00" fill="#000000">aws_autoscaling_group.example</text>
</g>
<!-- [root] aws_launch_configuration.example -->
<g id="node6" class="node">
<title>[root] aws_launch_configuration.example</title>
<polygon fill="none" stroke="#000000" points="848.5,-252 638.5,-252 638.5,-216 848.5,-216 848.5,-252"/>
<text text-anchor="middle" x="743.5" y="-230.3" font-family="Times,serif" font-size="14.00" fill="#000000">aws_launch_configuration.example</text>
</g>
<!-- [root] aws_autoscaling_group.example&#45;&gt;[root] aws_launch_configuration.example -->
<g id="edge5" class="edge">
<title>[root] aws_autoscaling_group.example&#45;&gt;[root] aws_launch_configuration.example</title>
<path fill="none" stroke="#000000" d="M889.545,-287.9243C863.0032,-278.1243 830.0177,-265.945 802.1142,-255.6422"/>
<polygon fill="#000000" stroke="#000000" points="803.0685,-252.2636 792.4752,-252.0831 800.6438,-258.8303 803.0685,-252.2636"/>
</g>
<!-- [root] aws_subnet.My_VPC_Subnet -->
<g id="node14" class="node">
<title>[root] aws_subnet.My_VPC_Subnet</title>
<polygon fill="none" stroke="#000000" points="1381.5,-252 1201.5,-252 1201.5,-216 1381.5,-216 1381.5,-252"/>
<text text-anchor="middle" x="1291.5" y="-230.3" font-family="Times,serif" font-size="14.00" fill="#000000">aws_subnet.My_VPC_Subnet</text>
</g>
<!-- [root] aws_autoscaling_group.example&#45;&gt;[root] aws_subnet.My_VPC_Subnet -->
<g id="edge6" class="edge">
<title>[root] aws_autoscaling_group.example&#45;&gt;[root] aws_subnet.My_VPC_Subnet</title>
<path fill="none" stroke="#000000" d="M1027.1212,-287.9243C1077.6773,-277.6126 1141.1482,-264.6666 1193.2276,-254.0442"/>
<polygon fill="#000000" stroke="#000000" points="1194.0498,-257.4487 1203.1486,-252.0207 1192.6508,-250.5899 1194.0498,-257.4487"/>
</g>
<!-- [root] aws_internet_gateway.My_VPC_GW -->
<g id="node5" class="node">
<title>[root] aws_internet_gateway.My_VPC_GW</title>
<polygon fill="none" stroke="#000000" points="2141.5,-252 1917.5,-252 1917.5,-216 2141.5,-216 2141.5,-252"/>
<text text-anchor="middle" x="2029.5" y="-230.3" font-family="Times,serif" font-size="14.00" fill="#000000">aws_internet_gateway.My_VPC_GW</text>
</g>
<!-- [root] aws_internet_gateway.My_VPC_GW&#45;&gt;[root] aws_vpc.My_VPC -->
<g id="edge7" class="edge">
<title>[root] aws_internet_gateway.My_VPC_GW&#45;&gt;[root] aws_vpc.My_VPC</title>
<path fill="none" stroke="#000000" d="M2013.6731,-215.8234C1993.5696,-194.1968 1956.6333,-159.1197 1916.5,-144 1818.3711,-107.0312 1094.2483,-94.0898 863.1607,-90.8763"/>
<polygon fill="#000000" stroke="#000000" points="862.9062,-87.3726 852.8591,-90.735 862.8101,-94.3719 862.9062,-87.3726"/>
</g>
<!-- [root] aws_security_group.instance -->
<g id="node13" class="node">
<title>[root] aws_security_group.instance</title>
<polygon fill="none" stroke="#000000" points="742,-180 569,-180 569,-144 742,-144 742,-180"/>
<text text-anchor="middle" x="655.5" y="-158.3" font-family="Times,serif" font-size="14.00" fill="#000000">aws_security_group.instance</text>
</g>
<!-- [root] aws_launch_configuration.example&#45;&gt;[root] aws_security_group.instance -->
<g id="edge8" class="edge">
<title>[root] aws_launch_configuration.example&#45;&gt;[root] aws_security_group.instance</title>
<path fill="none" stroke="#000000" d="M721.2939,-215.8314C710.455,-206.9632 697.2556,-196.1637 685.5322,-186.5718"/>
<polygon fill="#000000" stroke="#000000" points="687.655,-183.7864 677.699,-180.1628 683.2223,-189.2041 687.655,-183.7864"/>
</g>
<!-- [root] var.ami_id -->
<g id="node18" class="node">
<title>[root] var.ami_id</title>
<ellipse fill="none" stroke="#000000" cx="831.5" cy="-162" rx="71.4873" ry="18"/>
<text text-anchor="middle" x="831.5" y="-158.3" font-family="Times,serif" font-size="14.00" fill="#000000">[root] var.ami_id</text>
</g>
<!-- [root] aws_launch_configuration.example&#45;&gt;[root] var.ami_id -->
<g id="edge9" class="edge">
<title>[root] aws_launch_configuration.example&#45;&gt;[root] var.ami_id</title>
<path fill="none" stroke="#000000" d="M765.7061,-215.8314C776.7932,-206.7601 790.3502,-195.668 802.2708,-185.9148"/>
<polygon fill="#000000" stroke="#000000" points="804.6884,-188.459 810.2117,-179.4177 800.2557,-183.0413 804.6884,-188.459"/>
</g>
<!-- [root] var.key_name -->
<g id="node19" class="node">
<title>[root] var.key_name</title>
<ellipse fill="none" stroke="#000000" cx="467.5" cy="-162" rx="83.3857" ry="18"/>
<text text-anchor="middle" x="467.5" y="-158.3" font-family="Times,serif" font-size="14.00" fill="#000000">[root] var.key_name</text>
</g>
<!-- [root] aws_launch_configuration.example&#45;&gt;[root] var.key_name -->
<g id="edge10" class="edge">
<title>[root] aws_launch_configuration.example&#45;&gt;[root] var.key_name</title>
<path fill="none" stroke="#000000" d="M674.2098,-215.9243C630.0637,-204.4079 573.3228,-189.6059 530.4603,-178.4244"/>
<polygon fill="#000000" stroke="#000000" points="531.2689,-175.0183 520.7092,-175.8807 529.5019,-181.7916 531.2689,-175.0183"/>
</g>
<!-- [root] aws_network_acl.My_VPC_Security_ACL -->
<g id="node7" class="node">
<title>[root] aws_network_acl.My_VPC_Security_ACL</title>
<polygon fill="none" stroke="#000000" points="1345,-324 1092,-324 1092,-288 1345,-288 1345,-324"/>
<text text-anchor="middle" x="1218.5" y="-302.3" font-family="Times,serif" font-size="14.00" fill="#000000">aws_network_acl.My_VPC_Security_ACL</text>
</g>
<!-- [root] aws_network_acl.My_VPC_Security_ACL&#45;&gt;[root] aws_subnet.My_VPC_Subnet -->
<g id="edge11" class="edge">
<title>[root] aws_network_acl.My_VPC_Security_ACL&#45;&gt;[root] aws_subnet.My_VPC_Subnet</title>
<path fill="none" stroke="#000000" d="M1236.921,-287.8314C1245.6529,-279.219 1256.2317,-268.7851 1265.7423,-259.4048"/>
<polygon fill="#000000" stroke="#000000" points="1268.423,-261.6769 1273.0849,-252.1628 1263.5075,-256.6931 1268.423,-261.6769"/>
</g>
<!-- [root] var.destinationCIDRblock -->
<g id="node20" class="node">
<title>[root] var.destinationCIDRblock</title>
<ellipse fill="none" stroke="#000000" cx="1525.5" cy="-234" rx="126.1777" ry="18"/>
<text text-anchor="middle" x="1525.5" y="-230.3" font-family="Times,serif" font-size="14.00" fill="#000000">[root] var.destinationCIDRblock</text>
</g>
<!-- [root] aws_network_acl.My_VPC_Security_ACL&#45;&gt;[root] var.destinationCIDRblock -->
<g id="edge12" class="edge">
<title>[root] aws_network_acl.My_VPC_Security_ACL&#45;&gt;[root] var.destinationCIDRblock</title>
<path fill="none" stroke="#000000" d="M1295.5728,-287.9243C1342.8318,-276.8407 1403.067,-262.7139 1450.0285,-251.7001"/>
<polygon fill="#000000" stroke="#000000" points="1450.9021,-255.0903 1459.8387,-249.3994 1449.3037,-248.2752 1450.9021,-255.0903"/>
</g>
<!-- [root] aws_route.My_VPC_internet_access -->
<g id="node8" class="node">
<title>[root] aws_route.My_VPC_internet_access</title>
<polygon fill="none" stroke="#000000" points="1894.5,-324 1676.5,-324 1676.5,-288 1894.5,-288 1894.5,-324"/>
<text text-anchor="middle" x="1785.5" y="-302.3" font-family="Times,serif" font-size="14.00" fill="#000000">aws_route.My_VPC_internet_access</text>
</g>
<!-- [root] aws_route.My_VPC_internet_access&#45;&gt;[root] aws_internet_gateway.My_VPC_GW -->
<g id="edge13" class="edge">
<title>[root] aws_route.My_VPC_internet_access&#45;&gt;[root] aws_internet_gateway.My_VPC_GW</title>
<path fill="none" stroke="#000000" d="M1846.7566,-287.9243C1880.6929,-277.9103 1923.0481,-265.412 1958.4349,-254.97"/>
<polygon fill="#000000" stroke="#000000" points="1959.6177,-258.2703 1968.2182,-252.0831 1957.6365,-251.5565 1959.6177,-258.2703"/>
</g>
<!-- [root] aws_route_table.My_VPC_route_table -->
<g id="node9" class="node">
<title>[root] aws_route_table.My_VPC_route_table</title>
<polygon fill="none" stroke="#000000" points="1899,-252 1670,-252 1670,-216 1899,-216 1899,-252"/>
<text text-anchor="middle" x="1784.5" y="-230.3" font-family="Times,serif" font-size="14.00" fill="#000000">aws_route_table.My_VPC_route_table</text>
</g>
<!-- [root] aws_route.My_VPC_internet_access&#45;&gt;[root] aws_route_table.My_VPC_route_table -->
<g id="edge14" class="edge">
<title>[root] aws_route.My_VPC_internet_access&#45;&gt;[root] aws_route_table.My_VPC_route_table</title>
<path fill="none" stroke="#000000" d="M1785.2477,-287.8314C1785.1407,-280.131 1785.0135,-270.9743 1784.8947,-262.4166"/>
<polygon fill="#000000" stroke="#000000" points="1788.3944,-262.3637 1784.7557,-252.4133 1781.3951,-262.4609 1788.3944,-262.3637"/>
</g>
<!-- [root] aws_route.My_VPC_internet_access&#45;&gt;[root] var.destinationCIDRblock -->
<g id="edge15" class="edge">
<title>[root] aws_route.My_VPC_internet_access&#45;&gt;[root] var.destinationCIDRblock</title>
<path fill="none" stroke="#000000" d="M1720.2266,-287.9243C1681.5371,-277.2103 1632.5787,-263.6525 1593.4319,-252.8119"/>
<polygon fill="#000000" stroke="#000000" points="1594.2744,-249.4136 1583.703,-250.1178 1592.4062,-256.1597 1594.2744,-249.4136"/>
</g>
<!-- [root] aws_route_table.My_VPC_route_table&#45;&gt;[root] aws_vpc.My_VPC -->
<g id="edge16" class="edge">
<title>[root] aws_route_table.My_VPC_route_table&#45;&gt;[root] aws_vpc.My_VPC</title>
<path fill="none" stroke="#000000" d="M1854.6299,-215.9239C1872.2518,-207.885 1889.0929,-196.3841 1899.5,-180 1908.0788,-166.4943 1910.5347,-155.586 1899.5,-144 1863.6843,-106.3946 1100.814,-93.8102 862.7894,-90.7913"/>
<polygon fill="#000000" stroke="#000000" points="862.569,-87.2883 852.526,-90.6629 862.4814,-94.2878 862.569,-87.2883"/>
</g>
<!-- [root] aws_route_table_association.My_VPC_association -->
<g id="node10" class="node">
<title>[root] aws_route_table_association.My_VPC_association</title>
<polygon fill="none" stroke="#000000" points="1658,-324 1363,-324 1363,-288 1658,-288 1658,-324"/>
<text text-anchor="middle" x="1510.5" y="-302.3" font-family="Times,serif" font-size="14.00" fill="#000000">aws_route_table_association.My_VPC_association</text>
</g>
<!-- [root] aws_route_table_association.My_VPC_association&#45;&gt;[root] aws_route_table.My_VPC_route_table -->
<g id="edge17" class="edge">
<title>[root] aws_route_table_association.My_VPC_association&#45;&gt;[root] aws_route_table.My_VPC_route_table</title>
<path fill="none" stroke="#000000" d="M1579.2881,-287.9243C1617.8041,-277.8033 1665.9771,-265.1447 1705.9684,-254.6361"/>
<polygon fill="#000000" stroke="#000000" points="1706.9015,-258.0098 1715.6836,-252.0831 1705.1224,-251.2396 1706.9015,-258.0098"/>
</g>
<!-- [root] aws_route_table_association.My_VPC_association&#45;&gt;[root] aws_subnet.My_VPC_Subnet -->
<g id="edge18" class="edge">
<title>[root] aws_route_table_association.My_VPC_association&#45;&gt;[root] aws_subnet.My_VPC_Subnet</title>
<path fill="none" stroke="#000000" d="M1455.5197,-287.9243C1425.3208,-277.9959 1387.6942,-265.6255 1356.0996,-255.2382"/>
<polygon fill="#000000" stroke="#000000" points="1357.0958,-251.8815 1346.5029,-252.0831 1354.9095,-258.5313 1357.0958,-251.8815"/>
</g>
<!-- [root] aws_security_group.My_VPC_Security_Group&#45;&gt;[root] aws_vpc.My_VPC -->
<g id="edge19" class="edge">
<title>[root] aws_security_group.My_VPC_Security_Group&#45;&gt;[root] aws_vpc.My_VPC</title>
<path fill="none" stroke="#000000" d="M275.2087,-146.8626C411.8868,-131.8384 615.9072,-109.4117 722.2753,-97.7194"/>
<polygon fill="#000000" stroke="#000000" points="722.701,-101.1937 732.2586,-96.622 721.936,-94.2357 722.701,-101.1937"/>
</g>
<!-- [root] var.ingressCIDRblock -->
<g id="node21" class="node">
<title>[root] var.ingressCIDRblock</title>
<ellipse fill="none" stroke="#000000" cx="137.5" cy="-90" rx="112.3801" ry="18"/>
<text text-anchor="middle" x="137.5" y="-86.3" font-family="Times,serif" font-size="14.00" fill="#000000">[root] var.ingressCIDRblock</text>
</g>
<!-- [root] aws_security_group.My_VPC_Security_Group&#45;&gt;[root] var.ingressCIDRblock -->
<g id="edge20" class="edge">
<title>[root] aws_security_group.My_VPC_Security_Group&#45;&gt;[root] var.ingressCIDRblock</title>
<path fill="none" stroke="#000000" d="M137.5,-143.8314C137.5,-136.131 137.5,-126.9743 137.5,-118.4166"/>
<polygon fill="#000000" stroke="#000000" points="141.0001,-118.4132 137.5,-108.4133 134.0001,-118.4133 141.0001,-118.4132"/>
</g>
<!-- [root] aws_security_group.ingress&#45;all&#45;test -->
<g id="node12" class="node">
<title>[root] aws_security_group.ingress&#45;all&#45;test</title>
<polygon fill="none" stroke="#000000" points="823,-324 614,-324 614,-288 823,-288 823,-324"/>
<text text-anchor="middle" x="718.5" y="-302.3" font-family="Times,serif" font-size="14.00" fill="#000000">aws_security_group.ingress&#45;all&#45;test</text>
</g>
<!-- [root] aws_security_group.ingress&#45;all&#45;test&#45;&gt;[root] aws_vpc.My_VPC -->
<g id="edge21" class="edge">
<title>[root] aws_security_group.ingress&#45;all&#45;test&#45;&gt;[root] aws_vpc.My_VPC</title>
<path fill="none" stroke="#000000" d="M658.2399,-287.9685C564.4048,-259.2957 392.316,-204.092 375.5,-180 366.3423,-166.8799 364.9377,-156.0182 375.5,-144 397.9604,-118.4435 608.8578,-101.4715 721.8252,-94.1343"/>
<polygon fill="#000000" stroke="#000000" points="722.3545,-97.6077 732.1102,-93.4753 721.9069,-90.622 722.3545,-97.6077"/>
</g>
<!-- [root] aws_security_group.instance&#45;&gt;[root] aws_vpc.My_VPC -->
<g id="edge22" class="edge">
<title>[root] aws_security_group.instance&#45;&gt;[root] aws_vpc.My_VPC</title>
<path fill="none" stroke="#000000" d="M690.0709,-143.8314C707.9185,-134.4516 729.8774,-122.9112 748.88,-112.9244"/>
<polygon fill="#000000" stroke="#000000" points="750.7164,-115.9132 757.9402,-108.1628 747.4599,-109.7168 750.7164,-115.9132"/>
</g>
<!-- [root] aws_subnet.My_VPC_Subnet&#45;&gt;[root] aws_vpc.My_VPC -->
<g id="edge23" class="edge">
<title>[root] aws_subnet.My_VPC_Subnet&#45;&gt;[root] aws_vpc.My_VPC</title>
<path fill="none" stroke="#000000" d="M1381.5904,-217.5151C1384.5951,-216.9988 1387.5713,-216.4924 1390.5,-216 1497.3868,-198.0289 1697.6147,-223.0871 1623.5,-144 1597.6412,-116.4063 1058.8223,-97.8429 862.9139,-91.9837"/>
<polygon fill="#000000" stroke="#000000" points="862.8317,-88.4798 852.7322,-91.6814 862.6239,-95.4768 862.8317,-88.4798"/>
</g>
<!-- [root] var.availability_zone -->
<g id="node22" class="node">
<title>[root] var.availability_zone</title>
<ellipse fill="none" stroke="#000000" cx="1507.5" cy="-162" rx="107.4815" ry="18"/>
<text text-anchor="middle" x="1507.5" y="-158.3" font-family="Times,serif" font-size="14.00" fill="#000000">[root] var.availability_zone</text>
</g>
<!-- [root] aws_subnet.My_VPC_Subnet&#45;&gt;[root] var.availability_zone -->
<g id="edge24" class="edge">
<title>[root] aws_subnet.My_VPC_Subnet&#45;&gt;[root] var.availability_zone</title>
<path fill="none" stroke="#000000" d="M1345.7271,-215.9243C1377.3244,-205.3919 1417.166,-192.1113 1449.4036,-181.3655"/>
<polygon fill="#000000" stroke="#000000" points="1450.7667,-184.6005 1459.1467,-178.1178 1448.5531,-177.9597 1450.7667,-184.6005"/>
</g>
<!-- [root] var.mapPublicIP -->
<g id="node23" class="node">
<title>[root] var.mapPublicIP</title>
<ellipse fill="none" stroke="#000000" cx="1289.5" cy="-162" rx="92.8835" ry="18"/>
<text text-anchor="middle" x="1289.5" y="-158.3" font-family="Times,serif" font-size="14.00" fill="#000000">[root] var.mapPublicIP</text>
</g>
<!-- [root] aws_subnet.My_VPC_Subnet&#45;&gt;[root] var.mapPublicIP -->
<g id="edge25" class="edge">
<title>[root] aws_subnet.My_VPC_Subnet&#45;&gt;[root] var.mapPublicIP</title>
<path fill="none" stroke="#000000" d="M1290.9953,-215.8314C1290.7814,-208.131 1290.5271,-198.9743 1290.2894,-190.4166"/>
<polygon fill="#000000" stroke="#000000" points="1293.7879,-190.3122 1290.0115,-180.4133 1286.7906,-190.5066 1293.7879,-190.3122"/>
</g>
<!-- [root] var.subnetCIDRblock -->
<g id="node24" class="node">
<title>[root] var.subnetCIDRblock</title>
<ellipse fill="none" stroke="#000000" cx="1780.5" cy="-162" rx="110.4804" ry="18"/>
<text text-anchor="middle" x="1780.5" y="-158.3" font-family="Times,serif" font-size="14.00" fill="#000000">[root] var.subnetCIDRblock</text>
</g>
<!-- [root] aws_subnet.My_VPC_Subnet&#45;&gt;[root] var.subnetCIDRblock -->
<g id="edge26" class="edge">
<title>[root] aws_subnet.My_VPC_Subnet&#45;&gt;[root] var.subnetCIDRblock</title>
<path fill="none" stroke="#000000" d="M1381.5787,-217.4432C1384.5867,-216.9474 1387.5668,-216.4649 1390.5,-216 1508.3292,-197.3247 1538.3562,-196.5693 1656.5,-180 1666.7033,-178.569 1677.3756,-177.0514 1687.9941,-175.5282"/>
<polygon fill="#000000" stroke="#000000" points="1688.7413,-178.9568 1698.1411,-174.0687 1687.7447,-172.0281 1688.7413,-178.9568"/>
</g>
<!-- [root] aws_subnet.My_private_Subnet -->
<g id="node15" class="node">
<title>[root] aws_subnet.My_private_Subnet</title>
<polygon fill="none" stroke="#000000" points="1163,-252 972,-252 972,-216 1163,-216 1163,-252"/>
<text text-anchor="middle" x="1067.5" y="-230.3" font-family="Times,serif" font-size="14.00" fill="#000000">aws_subnet.My_private_Subnet</text>
</g>
<!-- [root] aws_subnet.My_private_Subnet&#45;&gt;[root] aws_vpc.My_VPC -->
<g id="edge27" class="edge">
<title>[root] aws_subnet.My_private_Subnet&#45;&gt;[root] aws_vpc.My_VPC</title>
<path fill="none" stroke="#000000" d="M1018.797,-215.9727C996.7411,-206.7576 970.8807,-194.4328 949.5,-180 930.2177,-166.9836 930.803,-156.9857 911.5,-144 892.9744,-131.5373 871.1058,-120.6762 851.2023,-112.0271"/>
<polygon fill="#000000" stroke="#000000" points="852.4876,-108.7705 841.9149,-108.0867 849.7535,-115.2145 852.4876,-108.7705"/>
</g>
<!-- [root] aws_subnet.My_private_Subnet&#45;&gt;[root] var.availability_zone -->
<g id="edge28" class="edge">
<title>[root] aws_subnet.My_private_Subnet&#45;&gt;[root] var.availability_zone</title>
<path fill="none" stroke="#000000" d="M1163.2447,-218.3327C1239.7841,-205.808 1346.179,-188.398 1420.3572,-176.2597"/>
<polygon fill="#000000" stroke="#000000" points="1421.3003,-179.652 1430.6038,-174.583 1420.1698,-172.7439 1421.3003,-179.652"/>
</g>
<!-- [root] aws_subnet.My_private_Subnet&#45;&gt;[root] var.mapPublicIP -->
<g id="edge29" class="edge">
<title>[root] aws_subnet.My_private_Subnet&#45;&gt;[root] var.mapPublicIP</title>
<path fill="none" stroke="#000000" d="M1123.2334,-215.9243C1156.4329,-205.1569 1198.488,-191.5174 1231.9955,-180.6501"/>
<polygon fill="#000000" stroke="#000000" points="1233.2192,-183.9328 1241.6517,-177.5184 1231.0597,-177.2742 1233.2192,-183.9328"/>
</g>
<!-- [root] var.subnetprivteblock -->
<g id="node25" class="node">
<title>[root] var.subnetprivteblock</title>
<ellipse fill="none" stroke="#000000" cx="1068.5" cy="-162" rx="109.6807" ry="18"/>
<text text-anchor="middle" x="1068.5" y="-158.3" font-family="Times,serif" font-size="14.00" fill="#000000">[root] var.subnetprivteblock</text>
</g>
<!-- [root] aws_subnet.My_private_Subnet&#45;&gt;[root] var.subnetprivteblock -->
<g id="edge30" class="edge">
<title>[root] aws_subnet.My_private_Subnet&#45;&gt;[root] var.subnetprivteblock</title>
<path fill="none" stroke="#000000" d="M1067.7523,-215.8314C1067.8593,-208.131 1067.9865,-198.9743 1068.1053,-190.4166"/>
<polygon fill="#000000" stroke="#000000" points="1071.6049,-190.4609 1068.2443,-180.4133 1064.6056,-190.3637 1071.6049,-190.4609"/>
</g>
<!-- [root] provider.aws -->
<g id="node17" class="node">
<title>[root] provider.aws</title>
<polygon fill="none" stroke="#000000" points="387.5,-36 307.5666,-18 387.5,0 467.4334,-18 387.5,-36"/>
<text text-anchor="middle" x="387.5" y="-14.3" font-family="Times,serif" font-size="14.00" fill="#000000">provider.aws</text>
</g>
<!-- [root] aws_vpc.My_VPC&#45;&gt;[root] provider.aws -->
<g id="edge31" class="edge">
<title>[root] aws_vpc.My_VPC&#45;&gt;[root] provider.aws</title>
<path fill="none" stroke="#000000" d="M732.4121,-80.2882C668.7698,-69.8717 565.4082,-52.5834 476.5,-36 464.393,-33.7418 451.3868,-31.1855 439.1577,-28.7234"/>
<polygon fill="#000000" stroke="#000000" points="439.6008,-25.2421 429.1048,-26.6859 438.2103,-32.1026 439.6008,-25.2421"/>
</g>
<!-- [root] var.dnsHostNames -->
<g id="node26" class="node">
<title>[root] var.dnsHostNames</title>
<ellipse fill="none" stroke="#000000" cx="586.5" cy="-18" rx="100.9827" ry="18"/>
<text text-anchor="middle" x="586.5" y="-14.3" font-family="Times,serif" font-size="14.00" fill="#000000">[root] var.dnsHostNames</text>
</g>
<!-- [root] aws_vpc.My_VPC&#45;&gt;[root] var.dnsHostNames -->
<g id="edge32" class="edge">
<title>[root] aws_vpc.My_VPC&#45;&gt;[root] var.dnsHostNames</title>
<path fill="none" stroke="#000000" d="M740.7834,-71.9243C710.7789,-61.4373 672.9792,-48.2258 642.3047,-37.5045"/>
<polygon fill="#000000" stroke="#000000" points="643.2095,-34.1132 632.6147,-34.1178 640.8999,-40.7212 643.2095,-34.1132"/>
</g>
<!-- [root] var.dnsSupport -->
<g id="node27" class="node">
<title>[root] var.dnsSupport</title>
<ellipse fill="none" stroke="#000000" cx="792.5" cy="-18" rx="87.1846" ry="18"/>
<text text-anchor="middle" x="792.5" y="-14.3" font-family="Times,serif" font-size="14.00" fill="#000000">[root] var.dnsSupport</text>
</g>
<!-- [root] aws_vpc.My_VPC&#45;&gt;[root] var.dnsSupport -->
<g id="edge33" class="edge">
<title>[root] aws_vpc.My_VPC&#45;&gt;[root] var.dnsSupport</title>
<path fill="none" stroke="#000000" d="M792.5,-71.8314C792.5,-64.131 792.5,-54.9743 792.5,-46.4166"/>
<polygon fill="#000000" stroke="#000000" points="796.0001,-46.4132 792.5,-36.4133 789.0001,-46.4133 796.0001,-46.4132"/>
</g>
<!-- [root] var.instanceTenancy -->
<g id="node28" class="node">
<title>[root] var.instanceTenancy</title>
<ellipse fill="none" stroke="#000000" cx="1003.5" cy="-18" rx="105.8812" ry="18"/>
<text text-anchor="middle" x="1003.5" y="-14.3" font-family="Times,serif" font-size="14.00" fill="#000000">[root] var.instanceTenancy</text>
</g>
<!-- [root] aws_vpc.My_VPC&#45;&gt;[root] var.instanceTenancy -->
<g id="edge34" class="edge">
<title>[root] aws_vpc.My_VPC&#45;&gt;[root] var.instanceTenancy</title>
<path fill="none" stroke="#000000" d="M845.4719,-71.9243C876.3377,-61.3919 915.2571,-48.1113 946.7485,-37.3655"/>
<polygon fill="#000000" stroke="#000000" points="947.9322,-40.6598 956.266,-34.1178 945.6715,-34.0348 947.9322,-40.6598"/>
</g>
<!-- [root] var.vpcCIDRblock -->
<g id="node29" class="node">
<title>[root] var.vpcCIDRblock</title>
<ellipse fill="none" stroke="#000000" cx="1227.5" cy="-18" rx="100.1823" ry="18"/>
<text text-anchor="middle" x="1227.5" y="-14.3" font-family="Times,serif" font-size="14.00" fill="#000000">[root] var.vpcCIDRblock</text>
</g>
<!-- [root] aws_vpc.My_VPC&#45;&gt;[root] var.vpcCIDRblock -->
<g id="edge35" class="edge">
<title>[root] aws_vpc.My_VPC&#45;&gt;[root] var.vpcCIDRblock</title>
<path fill="none" stroke="#000000" d="M852.5282,-80.0643C928.0814,-67.5589 1058.2749,-46.0097 1143.6332,-31.8814"/>
<polygon fill="#000000" stroke="#000000" points="1144.261,-35.3252 1153.5552,-30.2391 1143.1178,-28.4192 1144.261,-35.3252"/>
</g>
<!-- [root] meta.count&#45;boundary (count boundary fixup) -->
<g id="node30" class="node">
<title>[root] meta.count&#45;boundary (count boundary fixup)</title>
<ellipse fill="none" stroke="#000000" cx="1254.5" cy="-378" rx="193.0657" ry="18"/>
<text text-anchor="middle" x="1254.5" y="-374.3" font-family="Times,serif" font-size="14.00" fill="#000000">[root] meta.count&#45;boundary (count boundary fixup)</text>
</g>
<!-- [root] meta.count&#45;boundary (count boundary fixup)&#45;&gt;[root] aws_alb_listener.alb&#45;listener -->
<g id="edge36" class="edge">
<title>[root] meta.count&#45;boundary (count boundary fixup)&#45;&gt;[root] aws_alb_listener.alb&#45;listener</title>
<path fill="none" stroke="#000000" d="M1115.6973,-365.4713C1094.5299,-363.607 1072.9357,-361.7315 1052.5,-360 853.4603,-343.1351 803.5611,-340.6111 604.5,-324 568.0084,-320.9549 527.925,-317.5099 492.7679,-314.4549"/>
<polygon fill="#000000" stroke="#000000" points="492.7745,-310.9423 482.5087,-313.5624 492.1677,-317.916 492.7745,-310.9423"/>
</g>
<!-- [root] meta.count&#45;boundary (count boundary fixup)&#45;&gt;[root] aws_autoscaling_group.example -->
<g id="edge37" class="edge">
<title>[root] meta.count&#45;boundary (count boundary fixup)&#45;&gt;[root] aws_autoscaling_group.example</title>
<path fill="none" stroke="#000000" d="M1181.209,-361.3008C1135.4104,-350.8657 1076.1301,-337.3588 1027.6205,-326.3059"/>
<polygon fill="#000000" stroke="#000000" points="1028.2835,-322.8674 1017.7559,-324.0583 1026.7284,-329.6925 1028.2835,-322.8674"/>
</g>
<!-- [root] meta.count&#45;boundary (count boundary fixup)&#45;&gt;[root] aws_network_acl.My_VPC_Security_ACL -->
<g id="edge38" class="edge">
<title>[root] meta.count&#45;boundary (count boundary fixup)&#45;&gt;[root] aws_network_acl.My_VPC_Security_ACL</title>
<path fill="none" stroke="#000000" d="M1245.4157,-359.8314C1241.4385,-351.8771 1236.6845,-342.369 1232.2861,-333.5723"/>
<polygon fill="#000000" stroke="#000000" points="1235.3093,-331.7923 1227.7066,-324.4133 1229.0483,-334.9228 1235.3093,-331.7923"/>
</g>
<!-- [root] meta.count&#45;boundary (count boundary fixup)&#45;&gt;[root] aws_route.My_VPC_internet_access -->
<g id="edge39" class="edge">
<title>[root] meta.count&#45;boundary (count boundary fixup)&#45;&gt;[root] aws_route.My_VPC_internet_access</title>
<path fill="none" stroke="#000000" d="M1370.3039,-363.5303C1450.6364,-353.3337 1560.383,-339.0897 1666.3123,-324.1544"/>
<polygon fill="#000000" stroke="#000000" points="1666.8094,-327.619 1676.221,-322.7537 1665.8295,-320.6879 1666.8094,-327.619"/>
</g>
<!-- [root] meta.count&#45;boundary (count boundary fixup)&#45;&gt;[root] aws_route_table_association.My_VPC_association -->
<g id="edge40" class="edge">
<title>[root] meta.count&#45;boundary (count boundary fixup)&#45;&gt;[root] aws_route_table_association.My_VPC_association</title>
<path fill="none" stroke="#000000" d="M1315.4931,-360.8457C1351.7405,-350.6511 1397.972,-337.6485 1436.3221,-326.8625"/>
<polygon fill="#000000" stroke="#000000" points="1437.7228,-330.1045 1446.4017,-324.0277 1435.8275,-323.3659 1437.7228,-330.1045"/>
</g>
<!-- [root] meta.count&#45;boundary (count boundary fixup)&#45;&gt;[root] aws_security_group.ingress&#45;all&#45;test -->
<g id="edge41" class="edge">
<title>[root] meta.count&#45;boundary (count boundary fixup)&#45;&gt;[root] aws_security_group.ingress&#45;all&#45;test</title>
<path fill="none" stroke="#000000" d="M1135.6851,-363.7403C1053.6231,-353.668 941.7004,-339.4908 833.2977,-324.0924"/>
<polygon fill="#000000" stroke="#000000" points="833.5504,-320.5931 823.1565,-322.6468 832.5625,-327.5231 833.5504,-320.5931"/>
</g>
<!-- [root] meta.count&#45;boundary (count boundary fixup)&#45;&gt;[root] aws_subnet.My_private_Subnet -->
<g id="edge42" class="edge">
<title>[root] meta.count&#45;boundary (count boundary fixup)&#45;&gt;[root] aws_subnet.My_private_Subnet</title>
<path fill="none" stroke="#000000" d="M1175.0948,-361.5294C1136.3165,-351.8743 1095.2862,-338.7005 1082.5,-324 1067.9395,-307.2597 1064.8216,-281.8967 1064.9838,-262.3574"/>
<polygon fill="#000000" stroke="#000000" points="1068.4877,-262.3156 1065.3596,-252.1931 1061.4925,-262.0569 1068.4877,-262.3156"/>
</g>
<!-- [root] var.instance_type -->
<g id="node31" class="node">
<title>[root] var.instance_type</title>
<ellipse fill="none" stroke="#000000" cx="2164.5" cy="-306" rx="94.7833" ry="18"/>
<text text-anchor="middle" x="2164.5" y="-302.3" font-family="Times,serif" font-size="14.00" fill="#000000">[root] var.instance_type</text>
</g>
<!-- [root] meta.count&#45;boundary (count boundary fixup)&#45;&gt;[root] var.instance_type -->
<g id="edge43" class="edge">
<title>[root] meta.count&#45;boundary (count boundary fixup)&#45;&gt;[root] var.instance_type</title>
<path fill="none" stroke="#000000" d="M1434.5017,-371.4333C1598.3837,-364.1551 1846.8099,-349.8681 2061.5,-324 2069.8552,-322.9933 2078.562,-321.7609 2087.2192,-320.4176"/>
<polygon fill="#000000" stroke="#000000" points="2088.0149,-323.8348 2097.3351,-318.7965 2086.9072,-316.923 2088.0149,-323.8348"/>
</g>
<!-- [root] var.key_path -->
<g id="node32" class="node">
<title>[root] var.key_path</title>
<ellipse fill="none" stroke="#000000" cx="2356.5" cy="-306" rx="79.0865" ry="18"/>
<text text-anchor="middle" x="2356.5" y="-302.3" font-family="Times,serif" font-size="14.00" fill="#000000">[root] var.key_path</text>
</g>
<!-- [root] meta.count&#45;boundary (count boundary fixup)&#45;&gt;[root] var.key_path -->
<g id="edge44" class="edge">
<title>[root] meta.count&#45;boundary (count boundary fixup)&#45;&gt;[root] var.key_path</title>
<path fill="none" stroke="#000000" d="M1435.1565,-371.6104C1682.2308,-362.314 2112.6556,-343.9759 2268.5,-324 2275.6247,-323.0868 2283.0346,-321.9194 2290.3963,-320.6189"/>
<polygon fill="#000000" stroke="#000000" points="2291.1767,-324.0341 2300.3738,-318.7745 2289.9041,-317.1507 2291.1767,-324.0341"/>
</g>
<!-- [root] var.region -->
<g id="node33" class="node">
<title>[root] var.region</title>
<ellipse fill="none" stroke="#000000" cx="1982.5" cy="-306" rx="69.5877" ry="18"/>
<text text-anchor="middle" x="1982.5" y="-302.3" font-family="Times,serif" font-size="14.00" fill="#000000">[root] var.region</text>
</g>
<!-- [root] meta.count&#45;boundary (count boundary fixup)&#45;&gt;[root] var.region -->
<g id="edge45" class="edge">
<title>[root] meta.count&#45;boundary (count boundary fixup)&#45;&gt;[root] var.region</title>
<path fill="none" stroke="#000000" d="M1428.4829,-370.1954C1559.6187,-362.7001 1743.5818,-348.7451 1903.5,-324 1909.6122,-323.0542 1915.9553,-321.9023 1922.2696,-320.643"/>
<polygon fill="#000000" stroke="#000000" points="1923.0545,-324.0548 1932.1312,-318.5899 1921.6277,-317.2017 1923.0545,-324.0548"/>
</g>
<!-- [root] provider.aws (close) -->
<g id="node34" class="node">
<title>[root] provider.aws (close)</title>
<ellipse fill="none" stroke="#000000" cx="938.5" cy="-378" rx="105.0817" ry="18"/>
<text text-anchor="middle" x="938.5" y="-374.3" font-family="Times,serif" font-size="14.00" fill="#000000">[root] provider.aws (close)</text>
</g>
<!-- [root] provider.aws (close)&#45;&gt;[root] aws_alb_listener.alb&#45;listener -->
<g id="edge46" class="edge">
<title>[root] provider.aws (close)&#45;&gt;[root] aws_alb_listener.alb&#45;listener</title>
<path fill="none" stroke="#000000" d="M855.2963,-366.9471C757.6546,-353.9763 596.0246,-332.5051 492.9794,-318.8165"/>
<polygon fill="#000000" stroke="#000000" points="493.2586,-315.3229 482.8847,-317.4755 492.3367,-322.2619 493.2586,-315.3229"/>
</g>
<!-- [root] provider.aws (close)&#45;&gt;[root] aws_autoscaling_group.example -->
<g id="edge47" class="edge">
<title>[root] provider.aws (close)&#45;&gt;[root] aws_autoscaling_group.example</title>
<path fill="none" stroke="#000000" d="M938.5,-359.8314C938.5,-352.131 938.5,-342.9743 938.5,-334.4166"/>
<polygon fill="#000000" stroke="#000000" points="942.0001,-334.4132 938.5,-324.4133 935.0001,-334.4133 942.0001,-334.4132"/>
</g>
<!-- [root] provider.aws (close)&#45;&gt;[root] aws_network_acl.My_VPC_Security_ACL -->
<g id="edge48" class="edge">
<title>[root] provider.aws (close)&#45;&gt;[root] aws_network_acl.My_VPC_Security_ACL</title>
<path fill="none" stroke="#000000" d="M996.8563,-362.9941C1037.9186,-352.4352 1093.3843,-338.1726 1138.5571,-326.5567"/>
<polygon fill="#000000" stroke="#000000" points="1139.5115,-329.9253 1148.3248,-324.0451 1137.7682,-323.1458 1139.5115,-329.9253"/>
</g>
<!-- [root] provider.aws (close)&#45;&gt;[root] aws_route.My_VPC_internet_access -->
<g id="edge49" class="edge">
<title>[root] provider.aws (close)&#45;&gt;[root] aws_route.My_VPC_internet_access</title>
<path fill="none" stroke="#000000" d="M1012.8663,-365.1807C1026.0397,-363.2179 1039.6509,-361.3871 1052.5,-360 1321.3966,-330.972 1393.4536,-352.1443 1666.0561,-324.0925"/>
<polygon fill="#000000" stroke="#000000" points="1666.6717,-327.5474 1676.2551,-323.0298 1665.9462,-320.5851 1666.6717,-327.5474"/>
</g>
<!-- [root] provider.aws (close)&#45;&gt;[root] aws_route_table_association.My_VPC_association -->
<g id="edge50" class="edge">
<title>[root] provider.aws (close)&#45;&gt;[root] aws_route_table_association.My_VPC_association</title>
<path fill="none" stroke="#000000" d="M1014.7838,-365.5314C1027.3715,-363.5958 1040.2928,-361.6827 1052.5,-360 1082.0324,-355.9291 1232.2247,-338.3172 1352.6836,-324.2982"/>
<polygon fill="#000000" stroke="#000000" points="1353.2405,-327.7571 1362.7689,-323.1247 1352.4314,-320.804 1353.2405,-327.7571"/>
</g>
<!-- [root] provider.aws (close)&#45;&gt;[root] aws_security_group.ingress&#45;all&#45;test -->
<g id="edge51" class="edge">
<title>[root] provider.aws (close)&#45;&gt;[root] aws_security_group.ingress&#45;all&#45;test</title>
<path fill="none" stroke="#000000" d="M889.6749,-362.0209C858.4513,-351.8022 817.5856,-338.428 783.614,-327.31"/>
<polygon fill="#000000" stroke="#000000" points="784.3639,-323.8728 773.7712,-324.0888 782.1865,-330.5256 784.3639,-323.8728"/>
</g>
<!-- [root] provider.aws (close)&#45;&gt;[root] aws_subnet.My_private_Subnet -->
<g id="edge52" class="edge">
<title>[root] provider.aws (close)&#45;&gt;[root] aws_subnet.My_private_Subnet</title>
<path fill="none" stroke="#000000" d="M846.1441,-369.1953C752.7943,-359.342 620.1113,-342.338 604.5,-324 594.1284,-311.8168 593.8618,-299.9511 604.5,-288 616.2829,-274.763 828.7596,-254.3548 961.7345,-242.789"/>
<polygon fill="#000000" stroke="#000000" points="962.2998,-246.2532 971.9605,-241.9034 961.6957,-239.2794 962.2998,-246.2532"/>
</g>
<!-- [root] root -->
<g id="node35" class="node">
<title>[root] root</title>
<ellipse fill="none" stroke="#000000" cx="1096.5" cy="-450" rx="47.3916" ry="18"/>
<text text-anchor="middle" x="1096.5" y="-446.3" font-family="Times,serif" font-size="14.00" fill="#000000">[root] root</text>
</g>
<!-- [root] root&#45;&gt;[root] meta.count&#45;boundary (count boundary fixup) -->
<g id="edge53" class="edge">
<title>[root] root&#45;&gt;[root] meta.count&#45;boundary (count boundary fixup)</title>
<path fill="none" stroke="#000000" d="M1126.964,-436.1177C1149.4861,-425.8544 1180.6011,-411.6754 1206.4592,-399.892"/>
<polygon fill="#000000" stroke="#000000" points="1208.0741,-403.0025 1215.7224,-395.6708 1205.1713,-396.6327 1208.0741,-403.0025"/>
</g>
<!-- [root] root&#45;&gt;[root] provider.aws (close) -->
<g id="edge54" class="edge">
<title>[root] root&#45;&gt;[root] provider.aws (close)</title>
<path fill="none" stroke="#000000" d="M1066.036,-436.1177C1043.0347,-425.6361 1011.0709,-411.0703 984.8975,-399.1432"/>
<polygon fill="#000000" stroke="#000000" points="986.0951,-395.8427 975.544,-394.8808 983.1923,-402.2125 986.0951,-395.8427"/>
</g>
</g>
</svg>
